<?xml version="1.0" standalone="no"?>
<!DOCTYPE svg PUBLIC "-//W3C//DTD SVG 20010904//EN"
 "http://www.w3.org/TR/2001/REC-SVG-20010904/DTD/svg10.dtd">
<svg version="1.0" xmlns="http://www.w3.org/2000/svg"
 width="512.000000pt" height="512.000000pt" viewBox="0 0 512.000000 512.000000"
 preserveAspectRatio="xMidYMid meet">

<g transform="translate(0.000000,512.000000) scale(0.100000,-0.100000)"
fill="#676767" stroke="none">
<path d="M895 4146 c-16 -8 -150 -135 -297 -282 -226 -228 -267 -275 -273
-306 -21 -113 71 -210 183 -193 42 6 57 18 169 128 l123 120 0 -1114 c0 -956
2 -1123 15 -1172 47 -180 199 -324 376 -357 36 -7 435 -9 1141 -8 1080 3 1087
3 1114 24 44 32 66 68 71 116 7 58 -15 108 -63 144 l-37 29 -1096 5 c-857 4
-1101 8 -1118 18 -12 7 -35 29 -50 49 l-28 36 -3 1116 -2 1115 123 -121 c111
-109 128 -122 168 -128 84 -13 170 43 185 120 16 85 12 90 -274 379 -147 147
-281 274 -299 282 -40 17 -89 17 -128 0z"/>
<path d="M1695 4146 c-65 -28 -105 -107 -91 -178 7 -36 47 -92 79 -110 17 -10
261 -14 1118 -18 l1096 -5 37 -29 c70 -53 66 21 66 -1197 l0 -1102 -123 121
c-98 95 -131 122 -160 127 -112 21 -209 -71 -192 -184 6 -44 17 -56 283 -323
240 -240 282 -278 314 -283 89 -16 92 -15 381 273 148 147 275 279 283 294 8
15 14 45 14 68 0 103 -92 175 -197 155 -31 -5 -61 -30 -160 -128 l-123 -121 0
1120 c0 914 -3 1128 -14 1170 -45 169 -182 305 -353 349 -81 21 -2210 22
-2258 1z"/>
</g>
</svg>
